<svg width="202" height="101" viewBox="0 0 202 101" fill="none" xmlns="http://www.w3.org/2000/svg">
<path d="M118.018 45.7812V60H114.59V48.4277H109.482V60H106.064V45.7812H118.018ZM126.191 48.7695L122.725 60H119.043L124.268 45.7812H126.602L126.191 48.7695ZM129.062 60L125.586 48.7695L125.137 45.7812H127.5L132.754 60H129.062ZM128.926 54.6973V57.3438H121.631V54.6973H128.926ZM139.473 55.1758H135.938V52.5293H139.473C139.954 52.5293 140.345 52.4479 140.645 52.2852C140.944 52.1224 141.162 51.8978 141.299 51.6113C141.442 51.3184 141.514 50.9896 141.514 50.625C141.514 50.2344 141.442 49.873 141.299 49.541C141.162 49.209 140.944 48.9421 140.645 48.7402C140.345 48.5319 139.954 48.4277 139.473 48.4277H137.227V60H133.799V45.7812H139.473C140.612 45.7812 141.592 45.9896 142.412 46.4062C143.239 46.8229 143.874 47.3958 144.316 48.125C144.759 48.8477 144.98 49.6745 144.98 50.6055C144.98 51.5234 144.759 52.3242 144.316 53.0078C143.874 53.6914 143.239 54.2253 142.412 54.6094C141.592 54.987 140.612 55.1758 139.473 55.1758ZM151.328 54.6387L154.688 45.7812H158.311L153.516 57.0605C153.333 57.4772 153.122 57.8743 152.881 58.252C152.646 58.6296 152.367 58.9648 152.041 59.2578C151.722 59.5508 151.344 59.7819 150.908 59.9512C150.472 60.1204 149.961 60.2051 149.375 60.2051C149.232 60.2051 149.056 60.2018 148.848 60.1953C148.646 60.1953 148.47 60.1921 148.32 60.1855L148.262 57.5293C148.346 57.5488 148.464 57.5618 148.613 57.5684C148.763 57.5684 148.87 57.5684 148.936 57.5684C149.326 57.5684 149.635 57.5228 149.863 57.4316C150.091 57.334 150.27 57.1908 150.4 57.002C150.537 56.8066 150.654 56.5592 150.752 56.2598L151.328 54.6387ZM149.424 45.7812L152.334 51.9531L153.447 55.8984H150.986L145.781 45.7812H149.424ZM167.334 55.1855H170.752C170.706 56.1751 170.439 57.0475 169.951 57.8027C169.463 58.5579 168.786 59.1471 167.92 59.5703C167.061 59.987 166.045 60.1953 164.873 60.1953C163.923 60.1953 163.073 60.0358 162.324 59.7168C161.582 59.3978 160.951 58.9388 160.43 58.3398C159.915 57.7409 159.521 57.015 159.248 56.1621C158.981 55.3092 158.848 54.349 158.848 53.2812V52.5098C158.848 51.4421 158.988 50.4818 159.268 49.6289C159.554 48.7695 159.958 48.0404 160.479 47.4414C161.006 46.8359 161.637 46.3737 162.373 46.0547C163.109 45.7357 163.926 45.5762 164.824 45.5762C166.061 45.5762 167.106 45.7975 167.959 46.2402C168.812 46.6829 169.473 47.2917 169.941 48.0664C170.41 48.8346 170.687 49.7103 170.771 50.6934H167.354C167.34 50.1595 167.249 49.7135 167.08 49.3555C166.911 48.9909 166.644 48.7174 166.279 48.5352C165.915 48.3529 165.43 48.2617 164.824 48.2617C164.401 48.2617 164.033 48.3398 163.721 48.4961C163.408 48.6523 163.148 48.8997 162.939 49.2383C162.731 49.5768 162.575 50.0163 162.471 50.5566C162.373 51.0905 162.324 51.735 162.324 52.4902V53.2812C162.324 54.0365 162.37 54.681 162.461 55.2148C162.552 55.7487 162.699 56.1849 162.9 56.5234C163.102 56.862 163.363 57.1126 163.682 57.2754C164.007 57.4316 164.404 57.5098 164.873 57.5098C165.394 57.5098 165.833 57.4284 166.191 57.2656C166.549 57.0964 166.826 56.8424 167.021 56.5039C167.217 56.1589 167.321 55.7194 167.334 55.1855ZM178.398 48.7695L174.932 60H171.25L176.475 45.7812H178.809L178.398 48.7695ZM181.27 60L177.793 48.7695L177.344 45.7812H179.707L184.961 60H181.27ZM181.133 54.6973V57.3438H173.838V54.6973H181.133Z" fill="#212121"/>
<path d="M111.885 73.9551H108.223L108.203 71.709H111.172C111.706 71.709 112.132 71.6504 112.451 71.5332C112.77 71.4095 113.001 71.2305 113.145 70.9961C113.294 70.7617 113.369 70.4688 113.369 70.1172C113.369 69.7135 113.294 69.388 113.145 69.1406C112.995 68.8932 112.757 68.7142 112.432 68.6035C112.113 68.4863 111.699 68.4277 111.191 68.4277H109.512V80H106.084V65.7812H111.191C112.07 65.7812 112.855 65.8626 113.545 66.0254C114.235 66.1816 114.821 66.4225 115.303 66.748C115.791 67.0736 116.162 67.4837 116.416 67.9785C116.67 68.4668 116.797 69.043 116.797 69.707C116.797 70.2865 116.673 70.8301 116.426 71.3379C116.178 71.8457 115.765 72.2591 115.186 72.5781C114.613 72.8906 113.828 73.0534 112.832 73.0664L111.885 73.9551ZM111.748 80H107.393L108.564 77.3633H111.748C112.217 77.3633 112.591 77.2917 112.871 77.1484C113.158 76.9987 113.363 76.8034 113.486 76.5625C113.617 76.3151 113.682 76.0417 113.682 75.7422C113.682 75.3776 113.62 75.0618 113.496 74.7949C113.379 74.528 113.19 74.3229 112.93 74.1797C112.669 74.0299 112.321 73.9551 111.885 73.9551H109.004L109.023 71.709H112.471L113.271 72.6074C114.222 72.5684 114.974 72.7018 115.527 73.0078C116.087 73.3138 116.488 73.7174 116.729 74.2188C116.969 74.7201 117.09 75.2441 117.09 75.791C117.09 76.722 116.888 77.5 116.484 78.125C116.087 78.75 115.492 79.2188 114.697 79.5312C113.903 79.8438 112.92 80 111.748 80ZM131.025 72.6074V73.1836C131.025 74.2708 130.872 75.2474 130.566 76.1133C130.267 76.9727 129.84 77.7083 129.287 78.3203C128.734 78.9258 128.079 79.3913 127.324 79.7168C126.569 80.0358 125.736 80.1953 124.824 80.1953C123.906 80.1953 123.066 80.0358 122.305 79.7168C121.549 79.3913 120.892 78.9258 120.332 78.3203C119.779 77.7083 119.349 76.9727 119.043 76.1133C118.743 75.2474 118.594 74.2708 118.594 73.1836V72.6074C118.594 71.5202 118.743 70.5436 119.043 69.6777C119.349 68.8118 119.775 68.0762 120.322 67.4707C120.876 66.8587 121.53 66.3932 122.285 66.0742C123.047 65.7487 123.887 65.5859 124.805 65.5859C125.716 65.5859 126.549 65.7487 127.305 66.0742C128.066 66.3932 128.724 66.8587 129.277 67.4707C129.831 68.0762 130.26 68.8118 130.566 69.6777C130.872 70.5436 131.025 71.5202 131.025 72.6074ZM127.549 73.1836V72.5879C127.549 71.8848 127.487 71.2663 127.363 70.7324C127.246 70.1921 127.07 69.7396 126.836 69.375C126.602 69.0104 126.312 68.737 125.967 68.5547C125.628 68.3659 125.241 68.2715 124.805 68.2715C124.349 68.2715 123.952 68.3659 123.613 68.5547C123.275 68.737 122.992 69.0104 122.764 69.375C122.536 69.7396 122.363 70.1921 122.246 70.7324C122.135 71.2663 122.08 71.8848 122.08 72.5879V73.1836C122.08 73.8802 122.135 74.4987 122.246 75.0391C122.363 75.5729 122.536 76.0254 122.764 76.3965C122.998 76.7676 123.285 77.0475 123.623 77.2363C123.968 77.4251 124.368 77.5195 124.824 77.5195C125.26 77.5195 125.648 77.4251 125.986 77.2363C126.325 77.0475 126.608 76.7676 126.836 76.3965C127.07 76.0254 127.246 75.5729 127.363 75.0391C127.487 74.4987 127.549 73.8802 127.549 73.1836ZM140.889 75.1855H144.307C144.261 76.1751 143.994 77.0475 143.506 77.8027C143.018 78.5579 142.34 79.1471 141.475 79.5703C140.615 79.987 139.6 80.1953 138.428 80.1953C137.477 80.1953 136.628 80.0358 135.879 79.7168C135.137 79.3978 134.505 78.9388 133.984 78.3398C133.47 77.7409 133.076 77.015 132.803 76.1621C132.536 75.3092 132.402 74.349 132.402 73.2812V72.5098C132.402 71.4421 132.542 70.4818 132.822 69.6289C133.109 68.7695 133.512 68.0404 134.033 67.4414C134.561 66.8359 135.192 66.3737 135.928 66.0547C136.663 65.7357 137.48 65.5762 138.379 65.5762C139.616 65.5762 140.661 65.7975 141.514 66.2402C142.367 66.6829 143.027 67.2917 143.496 68.0664C143.965 68.8346 144.242 69.7103 144.326 70.6934H140.908C140.895 70.1595 140.804 69.7135 140.635 69.3555C140.465 68.9909 140.199 68.7174 139.834 68.5352C139.469 68.3529 138.984 68.2617 138.379 68.2617C137.956 68.2617 137.588 68.3398 137.275 68.4961C136.963 68.6523 136.702 68.8997 136.494 69.2383C136.286 69.5768 136.13 70.0163 136.025 70.5566C135.928 71.0905 135.879 71.735 135.879 72.4902V73.2812C135.879 74.0365 135.924 74.681 136.016 75.2148C136.107 75.7487 136.253 76.1849 136.455 76.5234C136.657 76.862 136.917 77.1126 137.236 77.2754C137.562 77.4316 137.959 77.5098 138.428 77.5098C138.949 77.5098 139.388 77.4284 139.746 77.2656C140.104 77.0964 140.381 76.8424 140.576 76.5039C140.771 76.1589 140.876 75.7194 140.889 75.1855ZM152.52 65.7812V80H149.092V65.7812H152.52ZM156.797 65.7812V68.4277H144.912V65.7812H156.797ZM170.01 72.6074V73.1836C170.01 74.2708 169.857 75.2474 169.551 76.1133C169.251 76.9727 168.825 77.7083 168.271 78.3203C167.718 78.9258 167.064 79.3913 166.309 79.7168C165.553 80.0358 164.72 80.1953 163.809 80.1953C162.891 80.1953 162.051 80.0358 161.289 79.7168C160.534 79.3913 159.876 78.9258 159.316 78.3203C158.763 77.7083 158.333 76.9727 158.027 76.1133C157.728 75.2474 157.578 74.2708 157.578 73.1836V72.6074C157.578 71.5202 157.728 70.5436 158.027 69.6777C158.333 68.8118 158.76 68.0762 159.307 67.4707C159.86 66.8587 160.514 66.3932 161.27 66.0742C162.031 65.7487 162.871 65.5859 163.789 65.5859C164.701 65.5859 165.534 65.7487 166.289 66.0742C167.051 66.3932 167.708 66.8587 168.262 67.4707C168.815 68.0762 169.245 68.8118 169.551 69.6777C169.857 70.5436 170.01 71.5202 170.01 72.6074ZM166.533 73.1836V72.5879C166.533 71.8848 166.471 71.2663 166.348 70.7324C166.23 70.1921 166.055 69.7396 165.82 69.375C165.586 69.0104 165.296 68.737 164.951 68.5547C164.613 68.3659 164.225 68.2715 163.789 68.2715C163.333 68.2715 162.936 68.3659 162.598 68.5547C162.259 68.737 161.976 69.0104 161.748 69.375C161.52 69.7396 161.348 70.1921 161.23 70.7324C161.12 71.2663 161.064 71.8848 161.064 72.5879V73.1836C161.064 73.8802 161.12 74.4987 161.23 75.0391C161.348 75.5729 161.52 76.0254 161.748 76.3965C161.982 76.7676 162.269 77.0475 162.607 77.2363C162.952 77.4251 163.353 77.5195 163.809 77.5195C164.245 77.5195 164.632 77.4251 164.971 77.2363C165.309 77.0475 165.592 76.7676 165.82 76.3965C166.055 76.0254 166.23 75.5729 166.348 75.0391C166.471 74.4987 166.533 73.8802 166.533 73.1836ZM175.186 65.7812V80H171.768V65.7812H175.186ZM183.389 65.7812L178.281 74.375H174.59L174.18 71.2793H176.514L179.248 65.7812H183.389ZM179.834 80L176.504 73.7793L178.994 71.4844L183.877 80H179.834ZM190.762 68.7695L187.295 80H183.613L188.838 65.7812H191.172L190.762 68.7695ZM193.633 80L190.156 68.7695L189.707 65.7812H192.07L197.324 80H193.633ZM193.496 74.6973V77.3438H186.201V74.6973H193.496Z" fill="#212121"/>
<path fill-rule="evenodd" clip-rule="evenodd" d="M29.2866 1.09791C29.2866 1.29068 29.3918 1.90064 29.5204 2.4535C29.7246 3.33165 30.4749 7.01389 31.3774 11.5681C31.5316 12.3464 31.8667 13.9945 32.1218 15.2305C32.377 16.4666 32.6478 17.815 32.7237 18.2271C32.7995 18.6391 33.0341 19.8002 33.2451 20.8074C33.4562 21.8146 33.7912 23.4627 33.9897 24.4698C34.188 25.477 34.624 27.6495 34.9586 29.2976C35.2932 30.9457 35.7638 33.268 36.0044 34.4583C36.245 35.6485 36.7524 38.1581 37.1318 40.0351C37.5114 41.9121 37.9487 44.0846 38.1036 44.8629C38.4743 46.724 39.681 52.7321 39.8757 53.686C40.1712 55.1326 40.664 57.6019 40.7313 57.9727C40.8265 58.4972 41.0775 58.4556 43.1162 57.5776C44.0991 57.1545 45.5757 56.529 46.3977 56.1877C47.2196 55.8466 48.2079 55.4063 48.5937 55.2094C48.9796 55.0124 49.3501 54.8513 49.4167 54.8513C49.4834 54.8513 50.1428 54.5839 50.882 54.257C51.6211 53.9302 52.8648 53.4025 53.6456 53.0845C54.4264 52.7665 55.8387 52.1701 56.7839 51.7594C57.7291 51.3485 58.8723 50.8582 59.3244 50.6698C59.7765 50.4815 60.2808 50.2613 60.4452 50.1805C60.6096 50.0998 61.4838 49.7224 62.388 49.3418C69.1079 46.5131 68.8887 46.6193 68.8887 46.1925C68.8887 46.0105 68.8383 45.861 68.7766 45.8602C68.6197 45.8582 67.979 45.1527 65.1526 41.8698C63.7965 40.2947 61.7623 37.9519 60.632 36.6639C59.5019 35.3757 58.5772 34.2588 58.5772 34.1819C58.5772 34.105 58.4787 34.0421 58.3583 34.0421C58.238 34.0421 58.0739 33.9059 57.9939 33.7393C57.914 33.5728 57.1382 32.6327 56.2701 31.6503C55.402 30.668 54.6917 29.8463 54.6917 29.8245C54.6917 29.8026 53.8007 28.7622 52.7116 27.5123C50.9422 25.4817 48.9569 23.1966 43.487 16.8953C42.573 15.8423 40.5675 13.53 39.0303 11.7569C37.4933 9.98361 35.6402 7.84859 34.9126 7.01239C34.185 6.17602 32.6723 4.42439 31.5512 3.11957C30.43 1.81474 29.4619 0.747314 29.3997 0.747314C29.3374 0.747314 29.2866 0.905132 29.2866 1.09791ZM30.3593 16.5407C30.2505 16.6174 30.1046 16.9346 30.035 17.2455C29.9653 17.5565 29.7092 18.3727 29.4658 19.0594C28.0673 23.0042 26.554 27.1997 26.3733 27.6328C26.2587 27.9075 25.6297 29.6305 24.9756 31.4617C24.3215 33.2929 23.5157 35.5403 23.1852 36.4559C22.8546 37.3715 22.1135 39.4317 21.5383 41.034C20.9631 42.6363 20.357 44.3218 20.1912 44.7796C20.0255 45.2374 19.648 46.3024 19.3523 47.1462C19.0567 47.9899 18.7041 48.9638 18.5692 49.3104C18.4341 49.6568 18.209 50.2774 18.069 50.6894C17.3336 52.8533 15.864 56.8866 15.689 57.2212C15.6059 57.3802 15.5379 57.5924 15.5379 57.6928C15.5379 57.7932 15.333 58.4122 15.0826 59.0684C14.8321 59.7248 14.4982 60.5988 14.3406 61.0108C14.1829 61.4228 13.7437 62.6589 13.3647 63.7576C12.9857 64.8564 12.5462 66.0277 12.3881 66.3606C12.036 67.1023 12.0212 67.5033 12.3461 67.5033C12.4811 67.5033 13.0633 67.3468 13.6398 67.1555C14.2164 66.9643 15.1316 66.6716 15.6734 66.5051C16.2153 66.3388 17.0958 66.055 17.6301 65.8744C18.1643 65.6939 19.2067 65.3416 19.9464 65.0916C20.6862 64.8415 21.6277 64.5424 22.0386 64.4265C22.6859 64.2442 24.5676 63.6654 26.8955 62.9324C27.2654 62.8161 28.3413 62.4588 29.2866 62.1388C30.2318 61.8187 31.6776 61.3536 32.4996 61.105C35.9648 60.0573 38.6448 59.1223 38.9002 58.8723C39.2008 58.5778 39.201 58.58 38.7279 56.2663C38.5593 55.4423 38.1802 53.5694 37.8853 52.1045C37.5906 50.6395 37.2122 48.7667 37.0445 47.9426C36.2607 44.0886 36.007 42.8352 35.713 41.3669C35.5389 40.4971 35.2938 39.2985 35.1685 38.7033C35.0432 38.1082 34.8155 36.9845 34.6626 36.2062C34.5097 35.428 34.2075 33.9297 33.9912 32.8768C33.7748 31.8238 33.4732 30.3255 33.3211 29.5473C32.9856 27.8328 32.5465 25.6516 32.1313 23.6375C31.1984 19.1117 31.031 18.2312 30.9473 17.4078C30.8544 16.4927 30.7161 16.2888 30.3593 16.5407ZM86.9712 51.0264C84.9574 51.189 82.5701 51.4374 81.666 51.5782C80.7619 51.7192 79.5514 51.8826 78.976 51.9412C78.4007 51.9998 77.6609 52.1125 77.3322 52.1915C77.0034 52.2708 75.8265 52.4905 74.7169 52.6801C73.6073 52.8696 71.9934 53.1746 71.1303 53.3575C70.2673 53.5406 68.8551 53.8386 67.992 54.0198C67.129 54.201 65.6832 54.5378 64.779 54.7682C63.8749 54.9986 62.5636 55.3291 61.8649 55.5022C59.8848 55.9935 58.5929 56.3407 57.4564 56.6877C55.9747 57.14 53.9659 57.7446 52.2259 58.2622C51.404 58.5067 50.328 58.8442 49.8348 59.0121C49.3417 59.1801 48.333 59.5194 47.5932 59.7658C46.8535 60.0123 45.9792 60.3123 45.6505 60.4325C45.3217 60.5527 44.4475 60.8505 43.7077 61.0946C42.4524 61.5084 41.5807 61.836 36.5345 63.7904C32.6726 65.286 31.6277 65.7094 28.0163 67.2418C26.5174 67.8779 25.8655 68.1627 25.1022 68.5151C24.7323 68.6859 23.7908 69.0964 23.01 69.4272C22.2292 69.7582 21.5263 70.0975 21.4483 70.1812C21.3702 70.2649 21.2182 70.3334 21.1104 70.3334C21.0027 70.3334 20.6295 70.4774 20.281 70.6535C19.9327 70.8294 19.1432 71.2077 18.5267 71.494C17.9103 71.7802 17.1296 72.1606 16.7917 72.3392C16.454 72.5178 16.1304 72.664 16.0728 72.664C16.0149 72.664 15.5853 72.8596 15.1177 73.0988C14.6502 73.3379 13.965 73.6796 13.5952 73.8583C12.0635 74.5977 9.72745 75.7749 7.61748 76.8703C6.12829 77.6435 2.44798 79.5881 1.15905 80.2828L0.00580187 80.9044L0.000870282 85.9403C-0.00391186 90.8997 0.0005714 90.9761 0.3008 90.9761C0.622848 90.9761 1.70989 90.4179 2.08813 90.0583C2.45052 89.7137 5.33804 88.0566 7.18186 87.1349C11.2574 85.0977 16.8981 83.4565 21.5156 82.964C23.8724 82.7128 29.1051 82.7102 31.4535 82.9591C34.3108 83.262 36.9425 83.8745 43.9319 85.8635C49.2344 87.3724 51.5539 87.8943 57.0081 88.8061C59.4671 89.2171 64.5786 89.52 67.469 89.4257C70.2141 89.3363 74.9106 88.904 75.1842 88.7157C75.2476 88.6721 75.9585 88.4976 76.7641 88.328C78.6326 87.9346 80.7125 87.3263 80.9651 87.0994C81.0727 87.0025 81.2791 86.6554 81.4237 86.3278C81.5684 86.0002 82.0595 84.9456 82.5151 83.9842C82.9708 83.0228 83.9342 80.9627 84.6562 79.4062C85.378 77.8496 86.2861 75.9019 86.6741 75.0779C87.062 74.2538 87.9024 72.4559 88.5414 71.0825C90.1416 67.6433 91.2803 65.2085 92.1617 63.3414C92.5724 62.4716 93.397 60.7112 93.9944 59.4293C94.5917 58.1475 95.4992 56.1997 96.0112 55.101C96.5232 54.0023 97.1802 52.6056 97.4711 51.9971L98 50.8909L97.5479 50.7902C96.6815 50.5971 90.6064 50.7327 86.9712 51.0264ZM89.435 85.6982C85.1377 88.1703 82.1992 89.3045 76.4355 90.7157C75.0562 91.0535 70.5231 91.5962 67.992 91.7266C66.8824 91.7838 64.865 91.7539 63.5088 91.66C60.5664 91.4564 56.2003 91.0107 55.8904 90.8824C55.7687 90.8319 54.9617 90.6816 54.0971 90.5481C53.2323 90.4146 52.0877 90.1968 51.5534 90.0642C51.0192 89.9315 50.0441 89.7037 49.3865 89.5581C47.1093 89.054 44.6458 88.4072 41.8397 87.5774C34.9246 85.5322 31.6436 84.9809 26.3725 84.9784C20.5781 84.9757 15.2637 86.0303 10.158 88.1958C7.98466 89.1178 7.58655 89.2985 7.41902 89.4404C7.32263 89.5218 7.0085 89.6911 6.72083 89.8166C6.06493 90.1026 2.16808 92.5481 1.56463 93.0525C1.31775 93.2588 0.847011 93.6348 0.518537 93.8882C-0.0493422 94.3264 -0.0569637 94.3434 0.364313 94.232C0.608053 94.1674 1.0788 93.9789 1.41041 93.8128C3.43086 92.801 9.31215 90.9678 12.3996 90.3873C17.6858 89.3934 26.3511 89.2796 30.4074 90.1506C30.8184 90.2388 31.7262 90.4234 32.4249 90.5609C34.6583 91.0002 36.496 91.4342 37.9542 91.8669C40.5975 92.6512 41.1641 92.8296 42.8111 93.398C52.9376 96.8916 63.7938 97.5257 73.0731 95.1652C78.2016 93.8606 83.0982 91.5866 86.5976 88.8842C87.0907 88.5033 87.7632 87.9904 88.092 87.7442C88.7161 87.277 91.305 84.8397 91.305 84.7193C91.305 84.6185 91.379 84.5798 89.435 85.6982ZM16.1357 92.7457C14.9645 92.8682 12.0783 93.4777 10.6063 93.9135C8.80719 94.4461 6.75983 95.2899 5.07697 96.1924C3.21313 97.1919 0.488649 99.0717 0.647506 99.2488C0.684119 99.2895 1.01947 99.1678 1.39292 98.9783C1.76623 98.7889 2.15941 98.6334 2.26671 98.6329C2.37401 98.6322 2.64166 98.5273 2.86164 98.3995C3.2206 98.1907 5.0547 97.6036 7.54276 96.9006C8.03592 96.7612 9.51539 96.4867 10.8305 96.2904C15.7793 95.552 21.2814 95.9392 26.6713 97.4056C28.7167 97.9622 31.7586 98.9001 31.954 99.0344C32.0421 99.0952 32.7055 99.2981 33.4278 99.4852C39.5489 101.071 45.5481 101.348 50.8062 100.287C52.5245 99.9405 54.7873 99.2825 55.6501 98.8783L56.108 98.6639L55.5866 98.5746C55.2999 98.5255 54.7627 98.4431 54.3928 98.3913C54.023 98.3396 52.8461 98.1441 51.7776 97.957C50.6998 97.7682 33.695 92.3883 31.954 92.3079C25.7369 92.0207 37.1535 96.5651 28.6888 94.1181C25.2434 93.1221 23.1965 92.8011 19.8717 92.7357C18.1868 92.7026 16.5055 92.7071 16.1357 92.7457Z" fill="#212121"/>
</svg>
